{
	"asset":{
		"version":"2.0",
		"generator":""
	},
	"scenes":[{
		"nodes":[0]
	}],
	"nodes":[{
		"name":"Vector.svg",
		"children":[1]
	},
	{
		"name":"Null",
		"translation":[0.0,
		0.0,
		0.0],
		"rotation":[0.0,
		0.0,
		0.0,
		-1.0],
		"scale":[1.5272876024246216,
		1.5272876024246216,
		1.5272876024246216],
		"children":[2]
	},
	{
		"name":"Null",
		"translation":[-0.19462759792804719,
		-0.3274853527545929,
		0.0],
		"rotation":[0.0,
		0.0,
		0.0,
		-1.0],
		"scale":[1.0,
		1.0,
		1.0],
		"children":[3,
		4]
	},
	{
		"name":"Fill",
		"mesh":0
	},
	{
		"name":"Fill",
		"mesh":1
	}],
	"meshes":[{
		"name":"Fill",
		"primitives":[{
			"attributes":{
				"POSITION":1
			},
			"indices":0,
			"material":0
		}]
	},
	{
		"name":"Fill",
		"primitives":[{
			"attributes":{
				"POSITION":3
			},
			"indices":2,
			"material":0
		}]
	}],
	"accessors":[{
		"bufferView":0,
		"type":"SCALAR",
		"componentType":5123,
		"count":1344,
		"byteOffset":0,
		"min":[0],
		"max":[223]
	},
	{
		"bufferView":1,
		"type":"VEC3",
		"componentType":5126,
		"count":224,
		"byteOffset":0,
		"min":[0.00004960937440046109,
		0.0002151944354409352,
		-0.04100000113248825],
		"max":[0.38920560479164126,
		0.6547555327415466,
		0.0010000000474974514]
	},
	{
		"bufferView":2,
		"type":"SCALAR",
		"componentType":5123,
		"count":672,
		"byteOffset":0,
		"min":[0],
		"max":[111]
	},
	{
		"bufferView":3,
		"type":"VEC3",
		"componentType":5126,
		"count":112,
		"byteOffset":0,
		"min":[0.017286110669374467,
		0.03134077787399292,
		-0.04100000113248825],
		"max":[0.367619127035141,
		0.6476999521255493,
		0.0010000000474974514]
	}],
	"bufferViews":[{
		"buffer":0,
		"byteOffset":0,
		"byteLength":2688,
		"target":34963
	},
	{
		"buffer":0,
		"byteOffset":2688,
		"byteLength":2688,
		"target":34962
	},
	{
		"buffer":1,
		"byteOffset":0,
		"byteLength":1344,
		"target":34963
	},
	{
		"buffer":1,
		"byteOffset":1344,
		"byteLength":1344,
		"target":34962
	}],
	"buffers":[{
		"uri":"data:application/octet-stream;base64,",
		"byteLength":5376
	},
	{
		"uri":"data:application/octet-stream;base64,",
		"byteLength":2688
	}],
	"materials":[{
		"pbrMetallicRoughness":{
			"baseColorFactor":[0.5467625899280575,
			0.11013922674809791,
			0.11013922674809791,
			1.0],
			"metallicFactor":0.0,
			"roughnessFactor":0.8
		},
		"emissiveFactor":[0.0,
		0.0,
		0.0],
		"alphaMode":"OPAQUE",
		"doubleSided":false,
		"name":"Node"
	}]
}