{
	"asset":{
		"version":"2.0",
		"generator":""
	},
	"scenes":[{
		"nodes":[0]
	}],
	"nodes":[{
		"name":"star.svg",
		"children":[1]
	},
	{
		"name":"Null",
		"translation":[0.0,
		0.0,
		0.0],
		"rotation":[0.0,
		0.0,
		0.0,
		-1.0],
		"scale":[65.9219970703125,
		65.9219970703125,
		65.9219970703125],
		"children":[2]
	},
	{
		"name":"Null",
		"translation":[-0.007780301850289106,
		-0.0076813302002847199,
		0.0],
		"rotation":[0.0,
		0.0,
		0.0,
		-1.0],
		"scale":[1.0,
		1.0,
		1.0],
		"children":[3]
	},
	{
		"name":"Fill",
		"mesh":0
	}],
	"meshes":[{
		"name":"Fill",
		"primitives":[{
			"attributes":{
				"POSITION":1,
				"NORMAL":2,
				"TEXCOORD_0":3
			},
			"indices":0
		}]
	}],
	"accessors":[{
		"bufferView":0,
		"type":"SCALAR",
		"componentType":5123,
		"min":[0],
		"count":1938,
		"byteOffset":0,
		"max":[677]
	},
	{
		"bufferView":1,
		"type":"VEC3",
		"componentType":5126,
		"min":[0.0,
		0.00019321638683322817,
		-0.0010499999625608326],
		"count":678,
		"byteOffset":0,
		"max":[0.015560603700578213,
		0.015169443562626839,
		0.00004999999873689376]
	},
	{
		"bufferView":1,
		"type":"VEC3",
		"componentType":5126,
		"min":[-0.9901602268218994,
		-0.9900580048561096,
		-1.0],
		"count":678,
		"byteOffset":12,
		"max":[0.9921014308929443,
		0.9889634251594544,
		1.0]
	},
	{
		"bufferView":1,
		"type":"VEC2",
		"componentType":5126,
		"min":[0.0,
		0.0],
		"count":678,
		"byteOffset":24,
		"max":[1.0,
		1.0]
	}],
	"bufferViews":[{
		"buffer":0,
		"target":34963,
		"byteOffset":0,
		"byteLength":3876
	},
	{
		"buffer":0,
		"target":34962,
		"byteOffset":3876,
		"byteLength":21696,
		"byteStride":32
	}],
	"buffers":[{
		"uri":"data:application/octet-stream;base64,",
		"byteLength":25572
	}]
}